<svg width="24" height="24" viewBox="0 0 24 24" fill="none" xmlns="http://www.w3.org/2000/svg">
<g clip-path="url(#clip0_6004_12226)">
<path d="M17.25 10.4375C17.7148 10.4375 18.125 10.8477 18.125 11.3125V12.1875C18.125 12.6797 17.7148 13.0625 17.25 13.0625H13.3125V17C13.3125 17.4922 12.9023 17.875 12.4375 17.875H11.5625C11.0703 17.875 10.6875 17.4922 10.6875 17V13.0625H6.75C6.25781 13.0625 5.875 12.6797 5.875 12.1875V11.3125C5.875 10.8477 6.25781 10.4375 6.75 10.4375H10.6875V6.5C10.6875 6.03516 11.0703 5.625 11.5625 5.625H12.4375C12.9023 5.625 13.3125 6.03516 13.3125 6.5V10.4375H17.25Z" fill="#46A6FF"/>
</g>
<defs>
<clipPath id="clip0_6004_12226">
<rect width="24" height="24" fill="white"/>
</clipPath>
</defs>
</svg>
