<svg width="16" height="16" viewBox="0 0 16 16" fill="none" xmlns="http://www.w3.org/2000/svg">
<g clip-path="url(#clip0_1613_118306)">
<path d="M11.5156 6.03906L9.05469 8.5L11.5156 10.9844C11.8203 11.2656 11.8203 11.7578 11.5156 12.0391C11.2344 12.3438 10.7422 12.3438 10.4609 12.0391L8 9.57812L5.51562 12.0391C5.23438 12.3438 4.74219 12.3438 4.46094 12.0391C4.15625 11.7578 4.15625 11.2656 4.46094 10.9844L6.92188 8.5L4.46094 6.03906C4.15625 5.75781 4.15625 5.26562 4.46094 4.98438C4.74219 4.67969 5.23438 4.67969 5.51562 4.98438L8 7.44531L10.4609 4.98438C10.7422 4.67969 11.2344 4.67969 11.5156 4.98438C11.8203 5.26562 11.8203 5.75781 11.5156 6.03906Z" fill="#CFD6E0"/>
</g>
<defs>
<clipPath id="clip0_1613_118306">
<rect width="16" height="16" fill="white"/>
</clipPath>
</defs>
</svg>
