<svg width="24" height="24" viewBox="0 0 24 24" fill="none" xmlns="http://www.w3.org/2000/svg">
<g clip-path="url(#clip0_2695_153205)">
<path d="M12 4.25C16.2812 4.25 19.75 7.71875 19.75 12C19.75 16.2812 16.2812 19.75 12 19.75C7.71875 19.75 4.25 16.2812 4.25 12C4.25 7.71875 7.71875 4.25 12 4.25ZM15.7812 14.0625L13.75 12L15.7812 9.96875C15.9375 9.84375 15.9375 9.59375 15.7812 9.4375L14.5625 8.21875C14.4062 8.0625 14.1562 8.0625 14.0312 8.21875L12 10.25L9.96875 8.21875C9.8125 8.0625 9.5625 8.0625 9.4375 8.21875L8.1875 9.4375C8.03125 9.59375 8.03125 9.84375 8.1875 9.96875L10.25 12L8.1875 14.0312C8.03125 14.1875 8.03125 14.4375 8.1875 14.5625L9.40625 15.8125C9.5625 15.9688 9.8125 15.9688 9.9375 15.8125L12 13.75L14.0312 15.8125C14.1562 15.9688 14.4062 15.9688 14.5625 15.8125L15.7812 14.5938C15.9375 14.4375 15.9375 14.1875 15.7812 14.0625Z" fill="#CFD6E0"/>
</g>
<defs>
<clipPath id="clip0_2695_153205">
<rect width="24" height="24" fill="white"/>
</clipPath>
</defs>
</svg>
