<svg width="24" height="24" viewBox="0 0 24 24" fill="none" xmlns="http://www.w3.org/2000/svg">
<g clip-path="url(#clip0_1552_476362)">
<path d="M19.75 12C19.75 16.2812 16.25 19.75 12 19.75C7.71875 19.75 4.25 16.2812 4.25 12C4.25 7.75 7.71875 4.25 12 4.25C16.25 4.25 19.75 7.75 19.75 12ZM12 13.5625C11.1875 13.5625 10.5625 14.2188 10.5625 15C10.5625 15.8125 11.1875 16.4375 12 16.4375C12.7812 16.4375 13.4375 15.8125 13.4375 15C13.4375 14.2188 12.7812 13.5625 12 13.5625ZM10.625 8.40625L10.8438 12.6562C10.875 12.875 11.0312 13 11.2188 13H12.75C12.9375 13 13.0938 12.875 13.125 12.6562L13.3438 8.40625C13.375 8.1875 13.1875 8 12.9688 8H11C10.7812 8 10.5938 8.1875 10.625 8.40625Z" fill="#E82207"/>
</g>
<defs>
<clipPath id="clip0_1552_476362">
<rect width="24" height="24" fill="white"/>
</clipPath>
</defs>
</svg>
