<svg width="24" height="24" viewBox="0 0 24 24" fill="none" xmlns="http://www.w3.org/2000/svg">
<g clip-path="url(#clip0_13419_11416)">
<path d="M9.21875 4.5625C9.375 4.21875 9.71875 4 10.0938 4H13.875C14.25 4 14.5938 4.21875 14.75 4.5625L15 5H18C18.5312 5 19 5.46875 19 6C19 6.5625 18.5312 7 18 7H6C5.4375 7 5 6.5625 5 6C5 5.46875 5.4375 5 6 5H9L9.21875 4.5625ZM18 8L17.3125 18.5938C17.2812 19.4062 16.625 20 15.8125 20H8.15625C7.34375 20 6.6875 19.4062 6.65625 18.5938L6 8H18Z" fill="#616974"/>
</g>
<defs>
<clipPath id="clip0_13419_11416">
<rect width="24" height="24" fill="white"/>
</clipPath>
</defs>
</svg>
