<svg width="25" height="24" viewBox="0 0 25 24" fill="none" xmlns="http://www.w3.org/2000/svg">
<g clip-path="url(#clip0_5324_62152)">
<path d="M12.2422 4.25C16.5234 4.25 19.9922 7.71875 19.9922 12C19.9922 16.2812 16.5234 19.75 12.2422 19.75C7.96094 19.75 4.49219 16.2812 4.49219 12C4.49219 7.71875 7.96094 4.25 12.2422 4.25ZM16.0234 14.0625L13.9922 12L16.0234 9.96875C16.1797 9.84375 16.1797 9.59375 16.0234 9.4375L14.8047 8.21875C14.6484 8.0625 14.3984 8.0625 14.2734 8.21875L12.2422 10.25L10.2109 8.21875C10.0547 8.0625 9.80469 8.0625 9.67969 8.21875L8.42969 9.4375C8.27344 9.59375 8.27344 9.84375 8.42969 9.96875L10.4922 12L8.42969 14.0312C8.27344 14.1875 8.27344 14.4375 8.42969 14.5625L9.64844 15.8125C9.80469 15.9688 10.0547 15.9688 10.1797 15.8125L12.2422 13.75L14.2734 15.8125C14.3984 15.9688 14.6484 15.9688 14.8047 15.8125L16.0234 14.5938C16.1797 14.4375 16.1797 14.1875 16.0234 14.0625Z" fill="#616974"/>
</g>
<defs>
<clipPath id="clip0_5324_62152">
<rect width="24" height="24" fill="white" transform="translate(0.242188)"/>
</clipPath>
</defs>
</svg>
