<svg width="48" height="48" viewBox="0 0 48 48" fill="none" xmlns="http://www.w3.org/2000/svg">
<g clip-path="url(#clip0_2508_14574)">
<path d="M32.25 13.5C33.4688 13.5 34.5 14.5312 34.5 15.75V32.25C34.5 33.5156 33.4688 34.5 32.25 34.5H15.75C14.4844 34.5 13.5 33.5156 13.5 32.25V15.75C13.5 14.5312 14.4844 13.5 15.75 13.5H32.25ZM31.2656 21.2812C31.4062 21.1875 31.5 21 31.5 20.7656C31.5 20.5781 31.4062 20.3906 31.2656 20.25L30.1875 19.1719C30.0469 19.0312 29.8594 18.9375 29.6719 18.9375C29.4375 18.9375 29.25 19.0312 29.1562 19.1719L22.125 26.2031L18.7969 22.9219C18.7031 22.7812 18.5156 22.6875 18.2812 22.6875C18.0938 22.6875 17.9062 22.7812 17.7656 22.9219L16.6875 24C16.5469 24.1406 16.5 24.3281 16.5 24.5156C16.5 24.75 16.5469 24.9375 16.6875 25.0312L21.5625 29.9062C21.7031 30.0469 21.8906 30.1406 22.125 30.1406C22.3125 30.1406 22.5 30.0469 22.6406 29.9062L31.2656 21.2812Z" fill="#C5E4F7"/>
<g filter="url(#filter0_d_2508_14574)">
<path d="M22.6406 29.9062C22.5 30.0469 22.3125 30.1406 22.125 30.1406C21.8906 30.1406 21.7031 30.0469 21.5625 29.9062L16.6875 25.0312C16.5469 24.9375 16.5 24.75 16.5 24.5156C16.5 24.3281 16.5469 24.1406 16.6875 24L17.7656 22.9219C17.9062 22.7812 18.0938 22.6875 18.2812 22.6875C18.5156 22.6875 18.7031 22.7812 18.7969 22.9219L22.125 26.2031L29.1562 19.1719C29.25 19.0312 29.4375 18.9844 29.6719 18.9844C29.8594 18.9844 30.0469 19.0312 30.1875 19.1719L31.2656 20.25C31.4062 20.3906 31.5 20.5781 31.5 20.7656C31.5 21 31.4062 21.1875 31.2656 21.2812L22.6406 29.9062Z" fill="#F3FAFE"/>
</g>
</g>
<defs>
<filter id="filter0_d_2508_14574" x="12.5" y="16.9844" width="23" height="19.1562" filterUnits="userSpaceOnUse" color-interpolation-filters="sRGB">
<feFlood flood-opacity="0" result="BackgroundImageFix"/>
<feColorMatrix in="SourceAlpha" type="matrix" values="0 0 0 0 0 0 0 0 0 0 0 0 0 0 0 0 0 0 127 0" result="hardAlpha"/>
<feOffset dy="2"/>
<feGaussianBlur stdDeviation="2"/>
<feColorMatrix type="matrix" values="0 0 0 0 0.0823529 0 0 0 0 0.431373 0 0 0 0 0.94902 0 0 0 0.15 0"/>
<feBlend mode="normal" in2="BackgroundImageFix" result="effect1_dropShadow_2508_14574"/>
<feBlend mode="normal" in="SourceGraphic" in2="effect1_dropShadow_2508_14574" result="shape"/>
</filter>
<clipPath id="clip0_2508_14574">
<rect width="48" height="48" fill="white"/>
</clipPath>
</defs>
</svg>
