<svg width="32" height="32" viewBox="0 0 32 32" fill="none" xmlns="http://www.w3.org/2000/svg">
<g clip-path="url(#clip0_8281_107295)">
<path d="M24.25 5.5C25.4688 5.5 26.5 6.53125 26.5 7.75V24.25C26.5 25.5156 25.4688 26.5 24.25 26.5H7.75C6.48438 26.5 5.5 25.5156 5.5 24.25V7.75C5.5 6.53125 6.48438 5.5 7.75 5.5H24.25ZM23.2656 13.2812C23.4062 13.1875 23.5 13 23.5 12.7656C23.5 12.5781 23.4062 12.3906 23.2656 12.25L22.1875 11.1719C22.0469 11.0312 21.8594 10.9375 21.6719 10.9375C21.4375 10.9375 21.25 11.0312 21.1562 11.1719L14.125 18.2031L10.7969 14.9219C10.7031 14.7812 10.5156 14.6875 10.2812 14.6875C10.0938 14.6875 9.90625 14.7812 9.76562 14.9219L8.6875 16C8.54688 16.1406 8.5 16.3281 8.5 16.5156C8.5 16.75 8.54688 16.9375 8.6875 17.0312L13.5625 21.9062C13.7031 22.0469 13.8906 22.1406 14.125 22.1406C14.3125 22.1406 14.5 22.0469 14.6406 21.9062L23.2656 13.2812Z" fill="#156EF2"/>
<g filter="url(#filter0_d_8281_107295)">
<path d="M14.6406 21.9062C14.5 22.0469 14.3125 22.1406 14.125 22.1406C13.8906 22.1406 13.7031 22.0469 13.5625 21.9062L8.6875 17.0312C8.54688 16.9375 8.5 16.75 8.5 16.5156C8.5 16.3281 8.54688 16.1406 8.6875 16L9.76562 14.9219C9.90625 14.7812 10.0938 14.6875 10.2812 14.6875C10.5156 14.6875 10.7031 14.7812 10.7969 14.9219L14.125 18.2031L21.1562 11.1719C21.25 11.0312 21.4375 10.9844 21.6719 10.9844C21.8594 10.9844 22.0469 11.0312 22.1875 11.1719L23.2656 12.25C23.4062 12.3906 23.5 12.5781 23.5 12.7656C23.5 13 23.4062 13.1875 23.2656 13.2812L14.6406 21.9062Z" fill="white"/>
</g>
</g>
<defs>
<filter id="filter0_d_8281_107295" x="4.5" y="8.98438" width="23" height="19.1562" filterUnits="userSpaceOnUse" color-interpolation-filters="sRGB">
<feFlood flood-opacity="0" result="BackgroundImageFix"/>
<feColorMatrix in="SourceAlpha" type="matrix" values="0 0 0 0 0 0 0 0 0 0 0 0 0 0 0 0 0 0 127 0" result="hardAlpha"/>
<feOffset dy="2"/>
<feGaussianBlur stdDeviation="2"/>
<feColorMatrix type="matrix" values="0 0 0 0 0 0 0 0 0 0 0 0 0 0 0 0 0 0 0.15 0"/>
<feBlend mode="normal" in2="BackgroundImageFix" result="effect1_dropShadow_8281_107295"/>
<feBlend mode="normal" in="SourceGraphic" in2="effect1_dropShadow_8281_107295" result="shape"/>
</filter>
<clipPath id="clip0_8281_107295">
<rect width="32" height="32" fill="white"/>
</clipPath>
</defs>
</svg>
