<svg width="32" height="32" viewBox="0 0 32 32" fill="none" xmlns="http://www.w3.org/2000/svg">
<g clip-path="url(#clip0_8281_107295)">
<path d="M24.25 5.5C25.4688 5.5 26.5 6.53125 26.5 7.75V24.25C26.5 25.5156 25.4688 26.5 24.25 26.5H7.75C6.48438 26.5 5.5 25.5156 5.5 24.25V7.75C5.5 6.53125 6.48438 5.5 7.75 5.5H24.25ZM22.75 17.3125V14.6875C22.75 14.4062 22.4688 14.125 22.1875 14.125H9.8125C9.48438 14.125 9.25 14.4062 9.25 14.6875V17.3125C9.25 17.6406 9.48438 17.875 9.8125 17.875H22.1875C22.4688 17.875 22.75 17.6406 22.75 17.3125Z" fill="#156EF2"/>
<g filter="url(#filter0_d_8281_107295)">
<path d="M22.75 14.6875V17.3125C22.75 17.6406 22.4688 17.875 22.1875 17.875H9.8125C9.48438 17.875 9.25 17.6406 9.25 17.3125V14.6875C9.25 14.4062 9.48438 14.125 9.8125 14.125H22.1875C22.4688 14.125 22.75 14.4062 22.75 14.6875Z" fill="white"/>
</g>
</g>
<defs>
<filter id="filter0_d_8281_107295" x="5.25" y="12.125" width="21.5" height="11.75" filterUnits="userSpaceOnUse" color-interpolation-filters="sRGB">
<feFlood flood-opacity="0" result="BackgroundImageFix"/>
<feColorMatrix in="SourceAlpha" type="matrix" values="0 0 0 0 0 0 0 0 0 0 0 0 0 0 0 0 0 0 127 0" result="hardAlpha"/>
<feOffset dy="2"/>
<feGaussianBlur stdDeviation="2"/>
<feColorMatrix type="matrix" values="0 0 0 0 0 0 0 0 0 0 0 0 0 0 0 0 0 0 0.15 0"/>
<feBlend mode="normal" in2="BackgroundImageFix" result="effect1_dropShadow_8281_107295"/>
<feBlend mode="normal" in="SourceGraphic" in2="effect1_dropShadow_8281_107295" result="shape"/>
</filter>
<clipPath id="clip0_8281_107295">
<rect width="32" height="32" fill="white"/>
</clipPath>
</defs>
</svg>
