<svg width="32" height="32" viewBox="0 0 32 32" fill="none" xmlns="http://www.w3.org/2000/svg">
<g clip-path="url(#clip0_8281_107295)">
<path d="M8.5 22.75V9.25C8.5 8.875 8.82812 8.5 9.25 8.5H22.75C23.125 8.5 23.5 8.875 23.5 9.25V22.75C23.5 23.1719 23.125 23.5 22.75 23.5H9.25C8.82812 23.5 8.5 23.1719 8.5 22.75Z" fill="white"/>
<path d="M24.25 5.5C25.4688 5.5 26.5 6.53125 26.5 7.75V24.25C26.5 25.5156 25.4688 26.5 24.25 26.5H7.75C6.48438 26.5 5.5 25.5156 5.5 24.25V7.75C5.5 6.53125 6.48438 5.5 7.75 5.5H24.25ZM23.5 22.75V9.25C23.5 8.875 23.125 8.5 22.75 8.5H9.25C8.82812 8.5 8.5 8.875 8.5 9.25V22.75C8.5 23.1719 8.82812 23.5 9.25 23.5H22.75C23.125 23.5 23.5 23.1719 23.5 22.75Z" fill="#7C8492"/>
</g>
<defs>
<clipPath id="clip0_8281_107295">
<rect width="32" height="32" fill="white"/>
</clipPath>
</defs>
</svg>
