<<<<<<< HEAD
<svg width="15" height="67" viewBox="0 0 15 67" fill="none" xmlns="http://www.w3.org/2000/svg">
<g clip-path="url(#clip0_8051_106536)">
<path d="M12.5 5C13.6046 5 14.5 4.10457 14.5 3C14.5 1.89543 13.6046 1 12.5 1C11.3954 1 10.5 1.89543 10.5 3C10.5 4.10457 11.3954 5 12.5 5Z" fill="#7C8492" stroke="#7C8492"/>
<path d="M10 3H0" stroke="#7C8492"/>
<path d="M0.5 66.5L0.500003 3.5" stroke="#7C8492"/>
</g>
<defs>
<clipPath id="clip0_8051_106536">
<rect width="15" height="66" fill="white" transform="translate(0 0.5)"/>
=======
<svg width="15" height="66" viewBox="0 0 15 66" fill="none" xmlns="http://www.w3.org/2000/svg">
<g clip-path="url(#clip0_7865_9503)">
<path d="M12.5 4.5C13.6046 4.5 14.5 3.60457 14.5 2.5C14.5 1.39543 13.6046 0.5 12.5 0.5C11.3954 0.5 10.5 1.39543 10.5 2.5C10.5 3.60457 11.3954 4.5 12.5 4.5Z" fill="#7C8492" stroke="#7C8492"/>
<path d="M10 2.5H0" stroke="#7C8492"/>
<path d="M0.5 66L0.500003 3" stroke="#7C8492"/>
</g>
<defs>
<clipPath id="clip0_7865_9503">
<rect width="15" height="66" fill="white"/>
>>>>>>> 924f384 (Refactor CSS images for theme support)
</clipPath>
</defs>
</svg>
