<svg width="40" height="40" viewBox="0 0 40 40" fill="none" xmlns="http://www.w3.org/2000/svg">
<g clip-path="url(#clip0_5327_139551)">
<path d="M27.0312 15.0781L22.1094 20L27.0312 24.9688C27.6406 25.5312 27.6406 26.5156 27.0312 27.0781C26.4688 27.6875 25.4844 27.6875 24.9219 27.0781L20 22.1562L15.0312 27.0781C14.4688 27.6875 13.4844 27.6875 12.9219 27.0781C12.3125 26.5156 12.3125 25.5312 12.9219 24.9688L17.8438 20L12.9219 15.0781C12.3125 14.5156 12.3125 13.5312 12.9219 12.9688C13.4844 12.3594 14.4688 12.3594 15.0312 12.9688L20 17.8906L24.9219 12.9688C25.4844 12.3594 26.4688 12.3594 27.0312 12.9688C27.6406 13.5312 27.6406 14.5156 27.0312 15.0781Z" fill="#0D5FD8"/>
</g>
<defs>
<clipPath id="clip0_5327_139551">
<rect width="24" height="24" fill="white" transform="translate(8 8)"/>
</clipPath>
</defs>
</svg>
