<svg width="24" height="24" viewBox="0 0 24 24" fill="none" xmlns="http://www.w3.org/2000/svg">
<g clip-path="url(#clip0_5327_51860)">
<path d="M12 20C9.125 20 6.5 18.5 5.0625 16C3.625 13.5312 3.625 10.5 5.0625 8C6.5 5.53125 9.125 4 12 4C14.8438 4 17.4688 5.53125 18.9062 8C20.3438 10.5 20.3438 13.5312 18.9062 16C17.4688 18.5 14.8438 20 12 20ZM11.25 14.75C11.25 15.1875 11.5625 15.5 12 15.5C12.4062 15.5 12.75 15.1875 12.75 14.75V12.75H14.75C15.1562 12.75 15.5 12.4375 15.5 12C15.5 11.5938 15.1562 11.25 14.75 11.25H12.75V9.25C12.75 8.84375 12.4062 8.5 12 8.5C11.5625 8.5 11.25 8.84375 11.25 9.25V11.25H9.25C8.8125 11.25 8.5 11.5938 8.5 12C8.5 12.4375 8.8125 12.75 9.25 12.75H11.25V14.75Z" fill="white"/>
</g>
<defs>
<clipPath id="clip0_5327_51860">
<rect width="24" height="24" fill="white"/>
</clipPath>
</defs>
</svg>
