<svg width="24" height="24" viewBox="0 0 24 24" fill="none" xmlns="http://www.w3.org/2000/svg">
<g clip-path="url(#clip0_5327_51562)">
<path d="M5 7C5 6.46875 5.4375 6 6 6H18C18.5312 6 19 6.46875 19 7C19 7.5625 18.5312 8 18 8H6C5.4375 8 5 7.5625 5 7ZM7 12C7 11.4688 7.4375 11 8 11H16C16.5312 11 17 11.4688 17 12C17 12.5625 16.5312 13 16 13H8C7.4375 13 7 12.5625 7 12ZM14 17C14 17.5625 13.5312 18 13 18H11C10.4375 18 10 17.5625 10 17C10 16.4688 10.4375 16 11 16H13C13.5312 16 14 16.4688 14 17Z" fill="#8E97A5"/>
</g>
<defs>
<clipPath id="clip0_5327_51562">
<rect width="24" height="24" fill="white"/>
</clipPath>
</defs>
</svg>
