<svg width="32" height="32" viewBox="0 0 32 32" fill="none" xmlns="http://www.w3.org/2000/svg">
<g clip-path="url(#clip0_5327_99796)">
<path d="M16 19.25C16.625 19.25 17.1875 19.5938 17.5 20.125C17.8125 20.6875 17.8125 21.3438 17.5 21.875C17.1875 22.4375 16.625 22.75 16 22.75C15.3438 22.75 14.7812 22.4375 14.4688 21.875C14.1562 21.3438 14.1562 20.6875 14.4688 20.125C14.7812 19.5938 15.3438 19.25 16 19.25ZM16 14.25C16.625 14.25 17.1875 14.5938 17.5 15.125C17.8125 15.6875 17.8125 16.3438 17.5 16.875C17.1875 17.4375 16.625 17.75 16 17.75C15.3438 17.75 14.7812 17.4375 14.4688 16.875C14.1562 16.3438 14.1562 15.6875 14.4688 15.125C14.7812 14.5938 15.3438 14.25 16 14.25ZM17.75 11C17.75 11.6562 17.4062 12.2188 16.875 12.5312C16.3125 12.8438 15.6562 12.8438 15.125 12.5312C14.5625 12.2188 14.25 11.6562 14.25 11C14.25 10.375 14.5625 9.8125 15.125 9.5C15.6562 9.1875 16.3125 9.1875 16.875 9.5C17.4062 9.8125 17.75 10.375 17.75 11Z" fill="#474C55"/>
</g>
<defs>
<clipPath id="clip0_5327_99796">
<rect width="24" height="24" fill="white" transform="translate(4 4)"/>
</clipPath>
</defs>
</svg>
