<svg width="24" height="24" viewBox="0 0 24 24" fill="none" xmlns="http://www.w3.org/2000/svg">
<g clip-path="url(#clip0_9193_436690)">
<mask id="mask0_9193_436690" style="mask-type:luminance" maskUnits="userSpaceOnUse" x="0" y="0" width="24" height="24">
<path d="M24 0H0V24H24V0Z" fill="white"/>
</mask>
<g mask="url(#mask0_9193_436690)">
<path d="M13 6.5V11H17.5C18.0312 11 18.5 11.4688 18.5 12C18.5 12.5625 18.0312 13 17.5 13H13V17.5C13 18.0625 12.5312 18.5 12 18.5C11.4375 18.5 11 18.0625 11 17.5V13H6.5C5.9375 13 5.5 12.5625 5.5 12C5.5 11.4688 5.9375 11 6.5 11H11V6.5C11 5.96875 11.4375 5.5 12 5.5C12.5312 5.5 13 5.96875 13 6.5Z" fill="#616974"/>
</g>
</g>
<defs>
<clipPath id="clip0_9193_436690">
<rect width="24" height="24" fill="white"/>
</clipPath>
</defs>
</svg>
