<svg width="32" height="32" viewBox="0 0 32 32" fill="none" xmlns="http://www.w3.org/2000/svg">
<g clip-path="url(#clip0_2929_213700)">
<path d="M16 21.5C12.9375 21.5 10.5 19.0312 10.5 16C10.5 12.9688 12.9375 10.5 16 10.5C19.0312 10.5 21.5 12.9688 21.5 16C21.5 19.0312 19.0312 21.5 16 21.5Z" fill="white"/>
<path d="M16 6.8125C21.3516 6.8125 25.6875 11.1484 25.6875 16.5C25.6875 21.8516 21.3516 26.1875 16 26.1875C10.6484 26.1875 6.3125 21.8516 6.3125 16.5C6.3125 11.1484 10.6484 6.8125 16 6.8125ZM16 23.375C19.7891 23.375 22.875 20.2891 22.875 16.5C22.875 12.7109 19.7891 9.625 16 9.625C12.1719 9.625 9.125 12.7109 9.125 16.5C9.125 20.2891 12.1719 23.375 16 23.375Z" fill="#7C8492"/>
</g>
<defs>
<clipPath id="clip0_2929_213700">
<rect width="32" height="32" fill="white"/>
</clipPath>
</defs>
</svg>
