<svg width="24" height="24" viewBox="0 0 24 24" fill="none" xmlns="http://www.w3.org/2000/svg">
<path d="M12.4766 5.02344L15.9766 8.52344C16.2227 8.76953 16.3047 9.15234 16.168 9.48047C16.0312 9.80859 15.7031 10.0273 15.375 10.0273H8.375C8.01953 10.0273 7.69141 9.80859 7.55469 9.48047C7.41797 9.15234 7.5 8.76953 7.74609 8.52344L11.2461 5.02344C11.5742 4.66797 12.1484 4.66797 12.4766 5.02344Z" fill="#616974"/>
<path d="M11.2461 18.5039L7.74609 15.0039C7.5 14.7578 7.41797 14.375 7.55469 14.0469C7.69141 13.7188 8.01953 13.5 8.375 13.5H15.375C15.7305 13.5 16.0312 13.7188 16.168 14.0469C16.3047 14.375 16.2227 14.7578 15.9766 15.0039L12.4766 18.5039C12.1484 18.8594 11.5742 18.8594 11.2461 18.5039Z" fill="#0D5FD8"/>
</svg>
