<svg width="24" height="24" viewBox="0 0 24 24" fill="none" xmlns="http://www.w3.org/2000/svg">
<g clip-path="url(#clip0_3058_45978)">
<path d="M8.21875 19.5312L5.21875 16.5312C4.90625 16.25 4.90625 15.7812 5.21875 15.4688L8.21875 12.5C8.5 12.1875 8.96875 12.1875 9.25 12.5C9.5625 12.7812 9.5625 13.25 9.25 13.5312L7.53125 15.25H18.25C18.6562 15.25 19 15.5938 19 16C19 16.4375 18.6562 16.75 18.25 16.75L7.53125 16.7812L9.25 18.5C9.5625 18.7812 9.5625 19.25 9.25 19.5312C8.96875 19.8438 8.5 19.8438 8.21875 19.5312ZM18.7812 8.53125L15.7812 11.5312C15.4688 11.8438 15 11.8438 14.7188 11.5312C14.4062 11.25 14.4062 10.7812 14.7188 10.4688L16.4375 8.75H5.75C5.3125 8.75 5 8.4375 5 8C5 7.59375 5.3125 7.25 5.75 7.25H16.4375L14.7188 5.53125C14.4062 5.25 14.4062 4.78125 14.7188 4.46875C15 4.1875 15.4688 4.1875 15.7812 4.46875L18.7812 7.5C19.0625 7.78125 19.0625 8.25 18.7812 8.53125Z" fill="#8E97A5"/>
</g>
<defs>
<clipPath id="clip0_3058_45978">
<rect width="24" height="24" fill="white"/>
</clipPath>
</defs>
</svg>
