<svg width="24" height="24" viewBox="0 0 24 24" fill="none" xmlns="http://www.w3.org/2000/svg">
<g clip-path="url(#clip0_6453_136615)">
<path d="M17.6875 5.625C17.9062 5.625 18.125 5.84375 18.125 6.0625V6.9375C18.125 7.18359 17.9062 7.375 17.6875 7.375H6.3125C6.06641 7.375 5.875 7.18359 5.875 6.9375V6.0625C5.875 5.84375 6.06641 5.625 6.3125 5.625H9.59375L9.83984 5.13281C9.94922 4.91406 10.168 4.75 10.4141 4.75H13.5586C13.8047 4.75 14.0234 4.91406 14.1328 5.13281L14.4062 5.625H17.6875ZM7.32422 17.5195L6.75 8.25H17.25L16.6484 17.5195C16.6211 18.2305 16.0469 18.75 15.3359 18.75H8.63672C7.92578 18.75 7.35156 18.2305 7.32422 17.5195Z" fill="#616974"/>
</g>
<defs>
<clipPath id="clip0_6453_136615">
<rect width="24" height="24" fill="white"/>
</clipPath>
</defs>
</svg>
