<svg width="48" height="48" viewBox="0 0 48 48" fill="none" xmlns="http://www.w3.org/2000/svg">
<g clip-path="url(#clip0_2673_147384)">
<path opacity="0.3" d="M32.25 13.5C33.4688 13.5 34.5 14.5312 34.5 15.75V32.25C34.5 33.5156 33.4688 34.5 32.25 34.5H15.75C14.4844 34.5 13.5 33.5156 13.5 32.25V15.75C13.5 14.5312 14.4844 13.5 15.75 13.5H32.25ZM30.75 25.3125V22.6875C30.75 22.4062 30.4688 22.125 30.1875 22.125H17.8125C17.4844 22.125 17.25 22.4062 17.25 22.6875V25.3125C17.25 25.6406 17.4844 25.875 17.8125 25.875H30.1875C30.4688 25.875 30.75 25.6406 30.75 25.3125Z" fill="#168CFA"/>
<g filter="url(#filter0_d_2673_147384)">
<path d="M30.75 22.6875V25.3125C30.75 25.6406 30.4688 25.875 30.1875 25.875H17.8125C17.4844 25.875 17.25 25.6406 17.25 25.3125V22.6875C17.25 22.4062 17.4844 22.125 17.8125 22.125H30.1875C30.4688 22.125 30.75 22.4062 30.75 22.6875Z" fill="#7C8492"/>
</g>
</g>
<defs>
<filter id="filter0_d_2673_147384" x="13.25" y="20.125" width="21.5" height="11.75" filterUnits="userSpaceOnUse" color-interpolation-filters="sRGB">
<feFlood flood-opacity="0" result="BackgroundImageFix"/>
<feColorMatrix in="SourceAlpha" type="matrix" values="0 0 0 0 0 0 0 0 0 0 0 0 0 0 0 0 0 0 127 0" result="hardAlpha"/>
<feOffset dy="2"/>
<feGaussianBlur stdDeviation="2"/>
<feColorMatrix type="matrix" values="0 0 0 0 0 0 0 0 0 0 0 0 0 0 0 0 0 0 0.15 0"/>
<feBlend mode="normal" in2="BackgroundImageFix" result="effect1_dropShadow_2673_147384"/>
<feBlend mode="normal" in="SourceGraphic" in2="effect1_dropShadow_2673_147384" result="shape"/>
</filter>
<clipPath id="clip0_2673_147384">
<rect width="48" height="48" fill="white"/>
</clipPath>
</defs>
</svg>
