<svg width="48" height="48" viewBox="0 0 48 48" fill="none" xmlns="http://www.w3.org/2000/svg">
<g clip-path="url(#clip0_2673_147420)">
<path d="M16.5 30.75V17.25C16.5 16.875 16.8281 16.5 17.25 16.5H30.75C31.125 16.5 31.5 16.875 31.5 17.25V30.75C31.5 31.1719 31.125 31.5 30.75 31.5H17.25C16.8281 31.5 16.5 31.1719 16.5 30.75Z" fill="#212428"/>
<path d="M32.25 13.5C33.4688 13.5 34.5 14.5312 34.5 15.75V32.25C34.5 33.5156 33.4688 34.5 32.25 34.5H15.75C14.4844 34.5 13.5 33.5156 13.5 32.25V15.75C13.5 14.5312 14.4844 13.5 15.75 13.5H32.25ZM31.5 30.75V17.25C31.5 16.875 31.125 16.5 30.75 16.5H17.25C16.8281 16.5 16.5 16.875 16.5 17.25V30.75C16.5 31.1719 16.8281 31.5 17.25 31.5H30.75C31.125 31.5 31.5 31.1719 31.5 30.75Z" fill="#8E97A5"/>
</g>
<defs>
<clipPath id="clip0_2673_147420">
<rect width="48" height="48" fill="white"/>
</clipPath>
</defs>
</svg>
