<svg width="32" height="32" viewBox="0 0 32 32" fill="none" xmlns="http://www.w3.org/2000/svg">
<g clip-path="url(#clip0_2596_59250)">
<path d="M16 23.375C12.1719 23.375 9.125 20.2891 9.125 16.5C9.125 12.7109 12.1719 9.625 16 9.625C19.7891 9.625 22.875 12.7109 22.875 16.5C22.875 20.2891 19.7891 23.375 16 23.375Z" fill="#212428"/>
<path d="M16 6.8125C21.3516 6.8125 25.6875 11.1484 25.6875 16.5C25.6875 21.8516 21.3516 26.1875 16 26.1875C10.6484 26.1875 6.3125 21.8516 6.3125 16.5C6.3125 11.1484 10.6484 6.8125 16 6.8125ZM16 23.375C19.7891 23.375 22.875 20.2891 22.875 16.5C22.875 12.7109 19.7891 9.625 16 9.625C12.1719 9.625 9.125 12.7109 9.125 16.5C9.125 20.2891 12.1719 23.375 16 23.375Z" fill="#8E97A5"/>
</g>
<defs>
<clipPath id="clip0_2596_59250">
<rect width="32" height="32" fill="white"/>
</clipPath>
</defs>
</svg>
